<mxfile host="app.diagrams.net" agent="Mozilla/5.0 (Windows NT 10.0; Win64; x64) AppleWebKit/537.36 (KHTML, like Gecko) Chrome/128.0.0.0 Safari/537.36 Edg/128.0.0.0" version="24.7.8">
  <diagram name="Page-1" id="_Hiwtk7J1Hc1h8cLQBU8">
    <mxGraphModel dx="691" dy="398" grid="1" gridSize="10" guides="1" tooltips="1" connect="1" arrows="1" fold="1" page="1" pageScale="1" pageWidth="850" pageHeight="1100" math="0" shadow="0">
      <root>
        <mxCell id="0" />
        <mxCell id="1" parent="0" />
        <mxCell id="XUNOoeOONSTACM2NRSry-2" value="Crowd Query" style="swimlane;childLayout=stackLayout;resizeParent=1;resizeParentMax=0;startSize=20;html=1;" vertex="1" parent="1">
          <mxGeometry x="250.00000000000045" y="50" width="414.99999999999955" height="480" as="geometry" />
        </mxCell>
        <mxCell id="XUNOoeOONSTACM2NRSry-3" value="UI" style="swimlane;startSize=20;html=1;" vertex="1" parent="XUNOoeOONSTACM2NRSry-2">
          <mxGeometry y="20" width="139.99999999999955" height="460" as="geometry" />
        </mxCell>
        <mxCell id="XUNOoeOONSTACM2NRSry-6" value="Get List of Questions" style="rounded=0;whiteSpace=wrap;html=1;" vertex="1" parent="XUNOoeOONSTACM2NRSry-3">
          <mxGeometry x="20" y="50" width="100" height="60" as="geometry" />
        </mxCell>
        <mxCell id="XUNOoeOONSTACM2NRSry-4" value="Blazor Server" style="swimlane;startSize=20;html=1;" vertex="1" parent="XUNOoeOONSTACM2NRSry-2">
          <mxGeometry x="139.99999999999955" y="20" width="120.00000000000045" height="460" as="geometry" />
        </mxCell>
        <mxCell id="XUNOoeOONSTACM2NRSry-7" value="View that will Query for ActiveQuestions" style="whiteSpace=wrap;html=1;rounded=0;" vertex="1" parent="XUNOoeOONSTACM2NRSry-4">
          <mxGeometry x="15" y="50" width="90" height="60" as="geometry" />
        </mxCell>
        <mxCell id="XUNOoeOONSTACM2NRSry-5" value="Akka Dotnet" style="swimlane;startSize=20;html=1;" vertex="1" parent="XUNOoeOONSTACM2NRSry-2">
          <mxGeometry x="260" y="20" width="154.99999999999955" height="460" as="geometry" />
        </mxCell>
        <mxCell id="XUNOoeOONSTACM2NRSry-14" value="Cache Actor" style="shape=umlActor;verticalLabelPosition=bottom;verticalAlign=top;html=1;outlineConnect=0;" vertex="1" parent="XUNOoeOONSTACM2NRSry-5">
          <mxGeometry x="62.999999999999545" y="50" width="30" height="60" as="geometry" />
        </mxCell>
        <mxCell id="XUNOoeOONSTACM2NRSry-8" value="" style="edgeStyle=orthogonalEdgeStyle;rounded=0;orthogonalLoop=1;jettySize=auto;html=1;" edge="1" parent="XUNOoeOONSTACM2NRSry-2" source="XUNOoeOONSTACM2NRSry-6" target="XUNOoeOONSTACM2NRSry-7">
          <mxGeometry relative="1" as="geometry" />
        </mxCell>
        <mxCell id="XUNOoeOONSTACM2NRSry-10" value="" style="edgeStyle=orthogonalEdgeStyle;rounded=0;orthogonalLoop=1;jettySize=auto;html=1;" edge="1" parent="XUNOoeOONSTACM2NRSry-2" source="XUNOoeOONSTACM2NRSry-7" target="XUNOoeOONSTACM2NRSry-14">
          <mxGeometry relative="1" as="geometry">
            <mxPoint x="299.99999999999955" y="100" as="targetPoint" />
          </mxGeometry>
        </mxCell>
        <mxCell id="XUNOoeOONSTACM2NRSry-40" style="edgeStyle=orthogonalEdgeStyle;rounded=0;orthogonalLoop=1;jettySize=auto;html=1;exitX=0;exitY=1;exitDx=0;exitDy=0;exitPerimeter=0;entryX=0.5;entryY=1;entryDx=0;entryDy=0;" edge="1" parent="XUNOoeOONSTACM2NRSry-2" source="XUNOoeOONSTACM2NRSry-14" target="XUNOoeOONSTACM2NRSry-7">
          <mxGeometry relative="1" as="geometry" />
        </mxCell>
        <mxCell id="XUNOoeOONSTACM2NRSry-41" style="edgeStyle=orthogonalEdgeStyle;rounded=0;orthogonalLoop=1;jettySize=auto;html=1;exitX=0.25;exitY=1;exitDx=0;exitDy=0;entryX=0.5;entryY=1;entryDx=0;entryDy=0;" edge="1" parent="XUNOoeOONSTACM2NRSry-2" source="XUNOoeOONSTACM2NRSry-7" target="XUNOoeOONSTACM2NRSry-6">
          <mxGeometry relative="1" as="geometry" />
        </mxCell>
        <mxCell id="XUNOoeOONSTACM2NRSry-15" value="CacheActor" style="swimlane;fontStyle=0;childLayout=stackLayout;horizontal=1;startSize=30;horizontalStack=0;resizeParent=1;resizeParentMax=0;resizeLast=0;collapsible=1;marginBottom=0;whiteSpace=wrap;html=1;" vertex="1" parent="1">
          <mxGeometry x="700" y="80" width="140" height="180" as="geometry" />
        </mxCell>
        <mxCell id="XUNOoeOONSTACM2NRSry-16" value="- Keeps a cache of basic question state" style="text;strokeColor=none;fillColor=none;align=left;verticalAlign=middle;spacingLeft=4;spacingRight=4;overflow=hidden;points=[[0,0.5],[1,0.5]];portConstraint=eastwest;rotatable=0;whiteSpace=wrap;html=1;" vertex="1" parent="XUNOoeOONSTACM2NRSry-15">
          <mxGeometry y="30" width="140" height="30" as="geometry" />
        </mxCell>
        <mxCell id="XUNOoeOONSTACM2NRSry-23" value="- DData for basic question state cache" style="text;strokeColor=none;fillColor=none;align=left;verticalAlign=middle;spacingLeft=4;spacingRight=4;overflow=hidden;points=[[0,0.5],[1,0.5]];portConstraint=eastwest;rotatable=0;whiteSpace=wrap;html=1;" vertex="1" parent="XUNOoeOONSTACM2NRSry-15">
          <mxGeometry y="60" width="140" height="30" as="geometry" />
        </mxCell>
        <mxCell id="XUNOoeOONSTACM2NRSry-37" value="- Accept changes to basic question state" style="text;strokeColor=none;fillColor=none;align=left;verticalAlign=middle;spacingLeft=4;spacingRight=4;overflow=hidden;points=[[0,0.5],[1,0.5]];portConstraint=eastwest;rotatable=0;whiteSpace=wrap;html=1;" vertex="1" parent="XUNOoeOONSTACM2NRSry-15">
          <mxGeometry y="90" width="140" height="30" as="geometry" />
        </mxCell>
        <mxCell id="XUNOoeOONSTACM2NRSry-39" value="- Send updates for basic question state" style="text;strokeColor=none;fillColor=none;align=left;verticalAlign=middle;spacingLeft=4;spacingRight=4;overflow=hidden;points=[[0,0.5],[1,0.5]];portConstraint=eastwest;rotatable=0;whiteSpace=wrap;html=1;" vertex="1" parent="XUNOoeOONSTACM2NRSry-15">
          <mxGeometry y="120" width="140" height="30" as="geometry" />
        </mxCell>
        <mxCell id="XUNOoeOONSTACM2NRSry-52" value="- one per node" style="text;strokeColor=none;fillColor=none;align=left;verticalAlign=middle;spacingLeft=4;spacingRight=4;overflow=hidden;points=[[0,0.5],[1,0.5]];portConstraint=eastwest;rotatable=0;whiteSpace=wrap;html=1;" vertex="1" parent="XUNOoeOONSTACM2NRSry-15">
          <mxGeometry y="150" width="140" height="30" as="geometry" />
        </mxCell>
        <mxCell id="XUNOoeOONSTACM2NRSry-24" value="BasicQuestionState" style="shape=table;startSize=30;container=1;collapsible=1;childLayout=tableLayout;fixedRows=1;rowLines=0;fontStyle=1;align=center;resizeLast=1;html=1;" vertex="1" parent="1">
          <mxGeometry x="890" y="85" width="180" height="150" as="geometry" />
        </mxCell>
        <mxCell id="XUNOoeOONSTACM2NRSry-25" value="" style="shape=tableRow;horizontal=0;startSize=0;swimlaneHead=0;swimlaneBody=0;fillColor=none;collapsible=0;dropTarget=0;points=[[0,0.5],[1,0.5]];portConstraint=eastwest;top=0;left=0;right=0;bottom=1;" vertex="1" parent="XUNOoeOONSTACM2NRSry-24">
          <mxGeometry y="30" width="180" height="30" as="geometry" />
        </mxCell>
        <mxCell id="XUNOoeOONSTACM2NRSry-26" value="PK" style="shape=partialRectangle;connectable=0;fillColor=none;top=0;left=0;bottom=0;right=0;fontStyle=1;overflow=hidden;whiteSpace=wrap;html=1;" vertex="1" parent="XUNOoeOONSTACM2NRSry-25">
          <mxGeometry width="30" height="30" as="geometry">
            <mxRectangle width="30" height="30" as="alternateBounds" />
          </mxGeometry>
        </mxCell>
        <mxCell id="XUNOoeOONSTACM2NRSry-27" value="QuestionId" style="shape=partialRectangle;connectable=0;fillColor=none;top=0;left=0;bottom=0;right=0;align=left;spacingLeft=6;fontStyle=5;overflow=hidden;whiteSpace=wrap;html=1;" vertex="1" parent="XUNOoeOONSTACM2NRSry-25">
          <mxGeometry x="30" width="150" height="30" as="geometry">
            <mxRectangle width="150" height="30" as="alternateBounds" />
          </mxGeometry>
        </mxCell>
        <mxCell id="XUNOoeOONSTACM2NRSry-28" value="" style="shape=tableRow;horizontal=0;startSize=0;swimlaneHead=0;swimlaneBody=0;fillColor=none;collapsible=0;dropTarget=0;points=[[0,0.5],[1,0.5]];portConstraint=eastwest;top=0;left=0;right=0;bottom=0;" vertex="1" parent="XUNOoeOONSTACM2NRSry-24">
          <mxGeometry y="60" width="180" height="30" as="geometry" />
        </mxCell>
        <mxCell id="XUNOoeOONSTACM2NRSry-29" value="" style="shape=partialRectangle;connectable=0;fillColor=none;top=0;left=0;bottom=0;right=0;editable=1;overflow=hidden;whiteSpace=wrap;html=1;" vertex="1" parent="XUNOoeOONSTACM2NRSry-28">
          <mxGeometry width="30" height="30" as="geometry">
            <mxRectangle width="30" height="30" as="alternateBounds" />
          </mxGeometry>
        </mxCell>
        <mxCell id="XUNOoeOONSTACM2NRSry-30" value="string Question" style="shape=partialRectangle;connectable=0;fillColor=none;top=0;left=0;bottom=0;right=0;align=left;spacingLeft=6;overflow=hidden;whiteSpace=wrap;html=1;" vertex="1" parent="XUNOoeOONSTACM2NRSry-28">
          <mxGeometry x="30" width="150" height="30" as="geometry">
            <mxRectangle width="150" height="30" as="alternateBounds" />
          </mxGeometry>
        </mxCell>
        <mxCell id="XUNOoeOONSTACM2NRSry-31" value="" style="shape=tableRow;horizontal=0;startSize=0;swimlaneHead=0;swimlaneBody=0;fillColor=none;collapsible=0;dropTarget=0;points=[[0,0.5],[1,0.5]];portConstraint=eastwest;top=0;left=0;right=0;bottom=0;" vertex="1" parent="XUNOoeOONSTACM2NRSry-24">
          <mxGeometry y="90" width="180" height="30" as="geometry" />
        </mxCell>
        <mxCell id="XUNOoeOONSTACM2NRSry-32" value="" style="shape=partialRectangle;connectable=0;fillColor=none;top=0;left=0;bottom=0;right=0;editable=1;overflow=hidden;whiteSpace=wrap;html=1;" vertex="1" parent="XUNOoeOONSTACM2NRSry-31">
          <mxGeometry width="30" height="30" as="geometry">
            <mxRectangle width="30" height="30" as="alternateBounds" />
          </mxGeometry>
        </mxCell>
        <mxCell id="XUNOoeOONSTACM2NRSry-33" value="int TotalVotes" style="shape=partialRectangle;connectable=0;fillColor=none;top=0;left=0;bottom=0;right=0;align=left;spacingLeft=6;overflow=hidden;whiteSpace=wrap;html=1;" vertex="1" parent="XUNOoeOONSTACM2NRSry-31">
          <mxGeometry x="30" width="150" height="30" as="geometry">
            <mxRectangle width="150" height="30" as="alternateBounds" />
          </mxGeometry>
        </mxCell>
        <mxCell id="XUNOoeOONSTACM2NRSry-34" value="" style="shape=tableRow;horizontal=0;startSize=0;swimlaneHead=0;swimlaneBody=0;fillColor=none;collapsible=0;dropTarget=0;points=[[0,0.5],[1,0.5]];portConstraint=eastwest;top=0;left=0;right=0;bottom=0;" vertex="1" parent="XUNOoeOONSTACM2NRSry-24">
          <mxGeometry y="120" width="180" height="30" as="geometry" />
        </mxCell>
        <mxCell id="XUNOoeOONSTACM2NRSry-35" value="" style="shape=partialRectangle;connectable=0;fillColor=none;top=0;left=0;bottom=0;right=0;editable=1;overflow=hidden;whiteSpace=wrap;html=1;" vertex="1" parent="XUNOoeOONSTACM2NRSry-34">
          <mxGeometry width="30" height="30" as="geometry">
            <mxRectangle width="30" height="30" as="alternateBounds" />
          </mxGeometry>
        </mxCell>
        <mxCell id="XUNOoeOONSTACM2NRSry-36" value="int NumOfAnswers" style="shape=partialRectangle;connectable=0;fillColor=none;top=0;left=0;bottom=0;right=0;align=left;spacingLeft=6;overflow=hidden;whiteSpace=wrap;html=1;" vertex="1" parent="XUNOoeOONSTACM2NRSry-34">
          <mxGeometry x="30" width="150" height="30" as="geometry">
            <mxRectangle width="150" height="30" as="alternateBounds" />
          </mxGeometry>
        </mxCell>
        <mxCell id="XUNOoeOONSTACM2NRSry-38" value="Notes:&lt;div&gt;- Why not do DistPubSub?&lt;/div&gt;" style="rounded=0;whiteSpace=wrap;html=1;" vertex="1" parent="1">
          <mxGeometry x="800" width="180" height="60" as="geometry" />
        </mxCell>
        <mxCell id="XUNOoeOONSTACM2NRSry-43" value="QuestionActor" style="swimlane;fontStyle=0;childLayout=stackLayout;horizontal=1;startSize=30;horizontalStack=0;resizeParent=1;resizeParentMax=0;resizeLast=0;collapsible=1;marginBottom=0;whiteSpace=wrap;html=1;" vertex="1" parent="1">
          <mxGeometry x="700" y="320" width="140" height="150" as="geometry" />
        </mxCell>
        <mxCell id="XUNOoeOONSTACM2NRSry-44" value="- Create and maintain question state" style="text;strokeColor=none;fillColor=none;align=left;verticalAlign=middle;spacingLeft=4;spacingRight=4;overflow=hidden;points=[[0,0.5],[1,0.5]];portConstraint=eastwest;rotatable=0;whiteSpace=wrap;html=1;" vertex="1" parent="XUNOoeOONSTACM2NRSry-43">
          <mxGeometry y="30" width="140" height="30" as="geometry" />
        </mxCell>
        <mxCell id="XUNOoeOONSTACM2NRSry-45" value="- keep tally of overall votes" style="text;strokeColor=none;fillColor=none;align=left;verticalAlign=middle;spacingLeft=4;spacingRight=4;overflow=hidden;points=[[0,0.5],[1,0.5]];portConstraint=eastwest;rotatable=0;whiteSpace=wrap;html=1;" vertex="1" parent="XUNOoeOONSTACM2NRSry-43">
          <mxGeometry y="60" width="140" height="30" as="geometry" />
        </mxCell>
        <mxCell id="XUNOoeOONSTACM2NRSry-46" value="- keep a record of which votes are for which answer" style="text;strokeColor=none;fillColor=none;align=left;verticalAlign=middle;spacingLeft=4;spacingRight=4;overflow=hidden;points=[[0,0.5],[1,0.5]];portConstraint=eastwest;rotatable=0;whiteSpace=wrap;html=1;" vertex="1" parent="XUNOoeOONSTACM2NRSry-43">
          <mxGeometry y="90" width="140" height="60" as="geometry" />
        </mxCell>
        <mxCell id="XUNOoeOONSTACM2NRSry-47" value="QuestionSagas" style="swimlane;fontStyle=0;childLayout=stackLayout;horizontal=1;startSize=30;horizontalStack=0;resizeParent=1;resizeParentMax=0;resizeLast=0;collapsible=1;marginBottom=0;whiteSpace=wrap;html=1;" vertex="1" parent="1">
          <mxGeometry x="700" y="520" width="140" height="140" as="geometry" />
        </mxCell>
        <mxCell id="XUNOoeOONSTACM2NRSry-48" value="- receives subscription requests from browsers" style="text;strokeColor=none;fillColor=none;align=left;verticalAlign=middle;spacingLeft=4;spacingRight=4;overflow=hidden;points=[[0,0.5],[1,0.5]];portConstraint=eastwest;rotatable=0;whiteSpace=wrap;html=1;" vertex="1" parent="XUNOoeOONSTACM2NRSry-47">
          <mxGeometry y="30" width="140" height="30" as="geometry" />
        </mxCell>
        <mxCell id="XUNOoeOONSTACM2NRSry-49" value="- sends question event updates to browsers" style="text;strokeColor=none;fillColor=none;align=left;verticalAlign=middle;spacingLeft=4;spacingRight=4;overflow=hidden;points=[[0,0.5],[1,0.5]];portConstraint=eastwest;rotatable=0;whiteSpace=wrap;html=1;" vertex="1" parent="XUNOoeOONSTACM2NRSry-47">
          <mxGeometry y="60" width="140" height="30" as="geometry" />
        </mxCell>
        <mxCell id="XUNOoeOONSTACM2NRSry-51" value="- open question: 1 in each node or 1 for the whole network?" style="text;strokeColor=none;fillColor=none;align=left;verticalAlign=middle;spacingLeft=4;spacingRight=4;overflow=hidden;points=[[0,0.5],[1,0.5]];portConstraint=eastwest;rotatable=0;whiteSpace=wrap;html=1;" vertex="1" parent="XUNOoeOONSTACM2NRSry-47">
          <mxGeometry y="90" width="140" height="50" as="geometry" />
        </mxCell>
      </root>
    </mxGraphModel>
  </diagram>
</mxfile>
